<svg width="20" height="20" viewBox="0 0 20 20" fill="none" xmlns="http://www.w3.org/2000/svg">
<g clip-path="url(#clip0_7552_862)">
<path d="M4.16663 12.5C3.39006 12.5 3.00177 12.5 2.69549 12.3731C2.28711 12.2039 1.96265 11.8795 1.79349 11.4711C1.66663 11.1648 1.66663 10.7765 1.66663 9.99996V4.33329C1.66663 3.39987 1.66663 2.93316 1.84828 2.57664C2.00807 2.26304 2.26304 2.00807 2.57664 1.84828C2.93316 1.66663 3.39987 1.66663 4.33329 1.66663H9.99996C10.7765 1.66663 11.1648 1.66663 11.4711 1.79349C11.8795 1.96265 12.2039 2.28711 12.3731 2.69549C12.5 3.00177 12.5 3.39006 12.5 4.16663M10.1666 18.3333H15.6666C16.6 18.3333 17.0668 18.3333 17.4233 18.1516C17.7369 17.9918 17.9918 17.7369 18.1516 17.4233C18.3333 17.0668 18.3333 16.6 18.3333 15.6666V10.1666C18.3333 9.23321 18.3333 8.7665 18.1516 8.40998C17.9918 8.09637 17.7369 7.8414 17.4233 7.68162C17.0668 7.49996 16.6 7.49996 15.6666 7.49996H10.1666C9.23321 7.49996 8.7665 7.49996 8.40998 7.68162C8.09637 7.8414 7.8414 8.09637 7.68162 8.40998C7.49996 8.7665 7.49996 9.23321 7.49996 10.1666V15.6666C7.49996 16.6 7.49996 17.0668 7.68162 17.4233C7.8414 17.7369 8.09637 17.9918 8.40998 18.1516C8.7665 18.3333 9.23321 18.3333 10.1666 18.3333Z" stroke="#fff" stroke-width="1.66667" stroke-linecap="round" stroke-linejoin="round"/>
</g>
<defs>
<clipPath id="clip0_7552_862">
<rect width="20" height="20" fill="white"/>
</clipPath>
</defs>
</svg>
